<?xml version="1.0" encoding="utf-8"?>
<!-- Generator: Adobe Illustrator 27.5.0, SVG Export Plug-In . SVG Version: 6.00 Build 0)  -->
<svg version="1.1" xmlns="http://www.w3.org/2000/svg" xmlns:xlink="http://www.w3.org/1999/xlink" x="0px" y="0px"
	 viewBox="0 0 500 500" style="enable-background:new 0 0 500 500;" xml:space="preserve">
<g id="BACKGROUND">
	<rect x="-0.01" y="0.188" style="fill:#C1D2F0;" width="499.833" height="499.973"/>
</g>
<g id="OBJECTS">
	
		<text transform="matrix(1.0023 0 0 1 183.075 53.771)" style="fill:#FEFFFF; font-family:'LeagueSpartan-Bold'; font-size:22.1311px; letter-spacing:2.993;">BIG DATA</text>
	<g>
		<g>
			<polygon style="fill:#F77E2D;" points="366.549,114.928 366.044,126.918 357.117,122.165 			"/>
		</g>
		<g>
			<g>
				<ellipse style="fill:#6CA1EF;" cx="345.111" cy="163.626" rx="27.136" ry="27.177"/>
			</g>
			<g>
				<path style="fill:#C636A4;" d="M377.024,179.886c0.391-0.738,0.789-1.47,1.132-2.245c7.843-17.749-0.336-38.431-18.268-46.194
					c-17.932-7.763-38.826,0.333-46.668,18.082c-0.342,0.775-0.615,1.562-0.897,2.346l-7.776-3.366
					c0.292-0.779,0.602-1.556,0.943-2.327c9.694-21.94,35.614-31.983,57.78-22.387c22.166,9.596,32.312,35.252,22.617,57.193
					c-0.341,0.771-0.706,1.523-1.086,2.264L377.024,179.886z"/>
			</g>
			<g>
				<path style="fill:#6CA1EF;" d="M377.024,179.886c0.391-0.738,0.789-1.47,1.132-2.245c7.843-17.749-0.336-38.431-18.268-46.194
					c-17.932-7.763-38.826,0.333-46.668,18.082c-0.342,0.775-0.615,1.562-0.897,2.346l-7.776-3.366
					c0.292-0.779,0.602-1.556,0.943-2.327c9.694-21.94,35.614-31.983,57.78-22.387c22.166,9.596,32.312,35.252,22.617,57.193
					c-0.341,0.771-0.706,1.523-1.086,2.264L377.024,179.886z"/>
			</g>
			<g>
				<path style="fill:#F77E2D;" d="M305.488,146.183c9.694-21.94,35.614-31.983,57.78-22.387c7.059,3.056,12.892,7.745,17.261,13.42
					c-2.232,1.724-4.309,3.608-6.306,5.579c-3.568-4.808-8.417-8.784-14.336-11.347c-17.932-7.763-38.826,0.333-46.669,18.082
					c-0.342,0.775-0.615,1.562-0.897,2.346l-7.776-3.366C304.838,147.73,305.148,146.954,305.488,146.183z"/>
			</g>
			<g>
				<path style="fill:#F0F5FF;" d="M305.488,146.183c6.222-14.082,19.132-23.251,33.44-25.484c0.979,2.696,2.102,5.342,3.233,7.986
					c-12.318,1.231-23.628,8.817-28.943,20.845c-0.342,0.775-0.615,1.562-0.897,2.346l-7.776-3.366
					C304.838,147.73,305.148,146.954,305.488,146.183z"/>
			</g>
			<g>
				<polygon style="fill:#6CA1EF;" points="396.849,154.061 386.829,160.598 385.462,150.68 				"/>
			</g>
			<g>
				<polygon style="fill:#F0F5FF;" points="311.589,124.019 321.961,129.993 313.595,135.617 				"/>
			</g>
		</g>
	</g>
	<g>
		<g>
			<g>
				<rect x="189.045" y="400.646" style="fill:#E3E9F9;" width="119.758" height="0.529"/>
			</g>
		</g>
		<g>
			<g>
				<g>
					<path style="fill:#F07E31;" d="M211.226,418.997c-0.616,0-1.116-0.499-1.116-1.116v-36.754c0-0.617,0.499-1.116,1.116-1.116
						c0.616,0,1.116,0.499,1.116,1.116v36.754C212.342,418.498,211.842,418.997,211.226,418.997z"/>
				</g>
			</g>
			<g>
				<g>
					<path style="fill:#F07E31;" d="M205.945,412.896c-0.616,0-1.116-0.499-1.116-1.116v-25.132c0-0.617,0.5-1.116,1.116-1.116
						c0.616,0,1.116,0.499,1.116,1.116v25.132C207.06,412.397,206.561,412.896,205.945,412.896z"/>
				</g>
			</g>
			<g>
				<g>
					<path style="fill:#F07E31;" d="M216.205,413.767c-0.616,0-1.116-0.499-1.116-1.116v-25.423c0-0.617,0.499-1.116,1.116-1.116
						c0.616,0,1.116,0.499,1.116,1.116v25.423C217.321,413.268,216.821,413.767,216.205,413.767z"/>
				</g>
			</g>
			<g>
				<g>
					<path style="fill:#F07E31;" d="M199.758,408.682c-0.616,0-1.116-0.499-1.116-1.116v-16.125c0-0.617,0.5-1.116,1.116-1.116
						c0.616,0,1.116,0.499,1.116,1.116v16.125C200.874,408.184,200.374,408.682,199.758,408.682z"/>
				</g>
			</g>
			<g>
				<g>
					<path style="fill:#F07E31;" d="M221.486,410.281c-0.616,0-1.116-0.499-1.116-1.116v-19.031c0-0.617,0.5-1.116,1.116-1.116
						c0.616,0,1.116,0.499,1.116,1.116v19.031C222.602,409.782,222.103,410.281,221.486,410.281z"/>
				</g>
			</g>
		</g>
		<g>
			<g>
				<g>
					<path style="fill:#6CA1EF;" d="M238.839,419.433c-0.616,0-1.116-0.499-1.116-1.116v-36.754c0-0.617,0.499-1.116,1.116-1.116
						c0.616,0,1.116,0.499,1.116,1.116v36.754C239.954,418.934,239.455,419.433,238.839,419.433z"/>
				</g>
			</g>
			<g>
				<g>
					<path style="fill:#6CA1EF;" d="M233.558,413.332c-0.616,0-1.116-0.499-1.116-1.116v-25.132c0-0.617,0.499-1.116,1.116-1.116
						s1.116,0.499,1.116,1.116v25.132C234.673,412.832,234.174,413.332,233.558,413.332z"/>
				</g>
			</g>
			<g>
				<g>
					<path style="fill:#6CA1EF;" d="M243.818,414.203c-0.616,0-1.116-0.499-1.116-1.116v-25.423c0-0.617,0.5-1.116,1.116-1.116
						c0.616,0,1.116,0.499,1.116,1.116v25.423C244.934,413.704,244.434,414.203,243.818,414.203z"/>
				</g>
			</g>
			<g>
				<g>
					<path style="fill:#6CA1EF;" d="M227.371,409.118c-0.616,0-1.116-0.499-1.116-1.116v-16.125c0-0.617,0.5-1.116,1.116-1.116
						s1.116,0.499,1.116,1.116v16.125C228.487,408.619,227.987,409.118,227.371,409.118z"/>
				</g>
			</g>
			<g>
				<g>
					<path style="fill:#6CA1EF;" d="M249.099,410.717c-0.616,0-1.116-0.499-1.116-1.116V390.57c0-0.617,0.5-1.116,1.116-1.116
						c0.616,0,1.116,0.499,1.116,1.116v19.031C250.215,410.218,249.715,410.717,249.099,410.717z"/>
				</g>
			</g>
		</g>
		<g>
			<g>
				<g>
					<path style="fill:#6CA1EF;" d="M290.897,419.433c-0.616,0-1.116-0.499-1.116-1.116v-36.754c0-0.617,0.499-1.116,1.116-1.116
						c0.616,0,1.116,0.499,1.116,1.116v36.754C292.012,418.934,291.513,419.433,290.897,419.433z"/>
				</g>
			</g>
			<g>
				<g>
					<path style="fill:#6CA1EF;" d="M285.615,413.332c-0.616,0-1.116-0.499-1.116-1.116v-25.132c0-0.617,0.5-1.116,1.116-1.116
						c0.616,0,1.116,0.499,1.116,1.116v25.132C286.731,412.832,286.231,413.332,285.615,413.332z"/>
				</g>
			</g>
			<g>
				<g>
					<path style="fill:#6CA1EF;" d="M295.876,414.203c-0.616,0-1.116-0.499-1.116-1.116v-25.423c0-0.617,0.499-1.116,1.116-1.116
						c0.616,0,1.116,0.499,1.116,1.116v25.423C296.991,413.704,296.492,414.203,295.876,414.203z"/>
				</g>
			</g>
			<g>
				<g>
					<path style="fill:#6CA1EF;" d="M279.429,409.118c-0.616,0-1.116-0.499-1.116-1.116v-16.125c0-0.617,0.5-1.116,1.116-1.116
						s1.116,0.499,1.116,1.116v16.125C280.544,408.619,280.045,409.118,279.429,409.118z"/>
				</g>
			</g>
			<g>
				<g>
					<path style="fill:#6CA1EF;" d="M301.157,410.717c-0.616,0-1.116-0.499-1.116-1.116V390.57c0-0.617,0.5-1.116,1.116-1.116
						c0.616,0,1.116,0.499,1.116,1.116v19.031C302.273,410.218,301.773,410.717,301.157,410.717z"/>
				</g>
			</g>
		</g>
		<g>
			<g>
				<g>
					<path style="fill:#F07E30;" d="M265.547,419.433c-0.616,0-1.116-0.499-1.116-1.116v-36.754c0-0.617,0.5-1.116,1.116-1.116
						c0.616,0,1.116,0.499,1.116,1.116v36.754C266.662,418.934,266.163,419.433,265.547,419.433z"/>
				</g>
			</g>
			<g>
				<g>
					<path style="fill:#F07E30;" d="M260.265,413.332c-0.616,0-1.116-0.499-1.116-1.116v-25.132c0-0.617,0.5-1.116,1.116-1.116
						c0.616,0,1.116,0.499,1.116,1.116v25.132C261.381,412.832,260.881,413.332,260.265,413.332z"/>
				</g>
			</g>
			<g>
				<g>
					<path style="fill:#F07E30;" d="M270.526,414.203c-0.616,0-1.116-0.499-1.116-1.116v-25.423c0-0.617,0.5-1.116,1.116-1.116
						c0.616,0,1.116,0.499,1.116,1.116v25.423C271.642,413.704,271.142,414.203,270.526,414.203z"/>
				</g>
			</g>
			<g>
				<g>
					<path style="fill:#F07E30;" d="M254.079,409.118c-0.616,0-1.116-0.499-1.116-1.116v-16.125c0-0.617,0.499-1.116,1.116-1.116
						c0.616,0,1.116,0.499,1.116,1.116v16.125C255.195,408.619,254.695,409.118,254.079,409.118z"/>
				</g>
			</g>
			<g>
				<g>
					<path style="fill:#F07E30;" d="M275.807,410.717c-0.616,0-1.116-0.499-1.116-1.116V390.57c0-0.617,0.5-1.116,1.116-1.116
						c0.616,0,1.116,0.499,1.116,1.116v19.031C276.923,410.218,276.423,410.717,275.807,410.717z"/>
				</g>
			</g>
		</g>
		<g>
			<g>
				<path style="fill:#6CA1EF;" d="M191.082,403.79L191.082,403.79c-1.618,0-2.942-1.275-2.942-2.833l0,0
					c0-1.558,1.324-2.833,2.942-2.833l0,0c1.618,0,2.942,1.275,2.942,2.833l0,0C194.024,402.515,192.7,403.79,191.082,403.79z"/>
			</g>
		</g>
		<g>
			<g>
				<path style="fill:#6CA1EF;" d="M310.814,404.008L310.814,404.008c-1.618,0-2.942-1.275-2.942-2.833l0,0
					c0-1.558,1.324-2.833,2.942-2.833l0,0c1.618,0,2.942,1.275,2.942,2.833l0,0C313.756,402.733,312.432,404.008,310.814,404.008z"
					/>
			</g>
		</g>
	</g>
	<g>
		<g>
			<path style="fill:#6CA1EF;" d="M327.748,358.715c0.493-1.972-0.146-27.784,0.215-30.35c-2.848,8.384-11.578,16.566-19.39,20.469
				c-12.961,6.476-25.22-13.713-40.78-11.811c-7.881,0.963-17.634,6.785-25.096,9.144c-14.306,4.522-24.781,5.441-38.407-1.256
				c-9.562-4.7-15.677-14.502-31.921-13.24v27.045H327.748z"/>
		</g>
		<g>
			<rect x="172.66" y="359.007" style="fill:#E3E9F9;" width="154.404" height="2.512"/>
		</g>
		<g>
			<path style="fill:#F77E2D;" d="M301.971,350.903c-4.988,0-8.846-2.673-12.59-5.266c-0.754-0.522-1.512-1.048-2.281-1.553
				c-6.958-4.569-12.257-6.828-20.336-5.683c-6.044,0.856-11.819,3.2-17.404,5.467c-6.149,2.495-12.507,5.075-19.388,5.787
				c-13.536,1.398-22.648-2.332-32.168-8.365l-1.129-0.719c-7.121-4.538-16.874-10.754-24.775-7.364
				c-0.508,0.22-1.096-0.018-1.313-0.524c-0.218-0.508,0.017-1.096,0.525-1.314c8.871-3.808,19.141,2.737,26.638,7.516l1.124,0.716
				c9.43,5.977,17.89,9.41,30.892,8.064c6.598-0.682,12.822-3.208,18.842-5.65c5.697-2.311,11.588-4.702,17.876-5.594
				c8.702-1.23,14.347,1.153,21.713,5.991c0.784,0.515,1.554,1.048,2.322,1.58c3.992,2.765,7.761,5.377,12.767,4.839
				c13.23-1.421,22.482-17.138,25.522-22.302c0.28-0.478,0.893-0.635,1.369-0.354c0.476,0.279,0.635,0.893,0.355,1.368
				c-3.167,5.38-12.802,21.748-27.032,23.276C302.979,350.877,302.469,350.903,301.971,350.903z"/>
		</g>
		<g>
			<path style="fill:#1F44C6;" d="M193.185,362.314L193.185,362.314c-0.268,0-0.486-0.219-0.486-0.486v-31.516
				c0-0.267,0.219-0.486,0.486-0.486l0,0c0.268,0,0.486,0.219,0.486,0.486v31.516C193.671,362.095,193.452,362.314,193.185,362.314z
				"/>
		</g>
		<g>
			<path style="fill:#1F44C6;" d="M221.004,362.314L221.004,362.314c-0.268,0-0.486-0.219-0.486-0.486v-31.516
				c0-0.267,0.219-0.486,0.486-0.486l0,0c0.268,0,0.486,0.219,0.486,0.486v31.516C221.491,362.095,221.272,362.314,221.004,362.314z
				"/>
		</g>
		<g>
			<path style="fill:#1F44C6;" d="M248.532,362.217L248.532,362.217c-0.268,0-0.486-0.219-0.486-0.486v-31.516
				c0-0.268,0.219-0.486,0.486-0.486l0,0c0.268,0,0.486,0.219,0.486,0.486v31.516C249.019,361.998,248.8,362.217,248.532,362.217z"
				/>
		</g>
		<g>
			<path style="fill:#1F44C6;" d="M275.185,361.438L275.185,361.438c-0.268,0-0.486-0.219-0.486-0.486v-31.516
				c0-0.267,0.219-0.486,0.486-0.486l0,0c0.267,0,0.486,0.219,0.486,0.486v31.516C275.671,361.22,275.452,361.438,275.185,361.438z"
				/>
		</g>
		<g>
			<path style="fill:#1F44C6;" d="M305.339,361.828L305.339,361.828c-0.268,0-0.486-0.219-0.486-0.486v-31.516
				c0-0.267,0.219-0.486,0.486-0.486l0,0c0.267,0,0.486,0.219,0.486,0.486v31.516C305.826,361.609,305.607,361.828,305.339,361.828z
				"/>
		</g>
		<g>
			<path style="fill:#6CA1EF;" d="M193.087,364.843L193.087,364.843c-1.177,0-2.14-0.963-2.14-2.14l0,0
				c0-1.177,0.963-2.14,2.14-2.14l0,0c1.177,0,2.14,0.963,2.14,2.14l0,0C195.227,363.88,194.264,364.843,193.087,364.843z"/>
		</g>
		<g>
			<path style="fill:#6CA1EF;" d="M220.907,364.065L220.907,364.065c-1.177,0-2.14-0.963-2.14-2.14l0,0
				c0-1.177,0.963-2.14,2.14-2.14l0,0c1.177,0,2.14,0.963,2.14,2.14l0,0C223.047,363.102,222.084,364.065,220.907,364.065z"/>
		</g>
		<g>
			<path style="fill:#6CA1EF;" d="M248.143,364.454L248.143,364.454c-1.177,0-2.14-0.963-2.14-2.14l0,0
				c0-1.177,0.963-2.14,2.14-2.14l0,0c1.177,0,2.14,0.963,2.14,2.14l0,0C250.283,363.491,249.32,364.454,248.143,364.454z"/>
		</g>
		<g>
			<path style="fill:#6CA1EF;" d="M274.99,363.481L274.99,363.481c-1.177,0-2.14-0.963-2.14-2.14l0,0c0-1.177,0.963-2.14,2.14-2.14
				l0,0c1.177,0,2.14,0.963,2.14,2.14l0,0C277.13,362.518,276.167,363.481,274.99,363.481z"/>
		</g>
		<g>
			<path style="fill:#6CA1EF;" d="M305.339,363.87L305.339,363.87c-1.177,0-2.14-0.963-2.14-2.14l0,0c0-1.177,0.963-2.14,2.14-2.14
				l0,0c1.177,0,2.14,0.963,2.14,2.14l0,0C307.479,362.907,306.516,363.87,305.339,363.87z"/>
		</g>
	</g>
	<g>
		<polygon style="fill:#FEFFFF;" points="348.603,97.547 351.799,103.389 357.641,106.584 351.799,109.779 348.603,115.621 
			345.409,109.779 339.566,106.584 345.409,103.389 		"/>
	</g>
	<g>
		<polygon style="fill:#FEFFFF;" points="272.268,148.794 275.463,154.636 281.305,157.831 275.463,161.026 272.268,166.868 
			269.073,161.026 263.231,157.831 269.073,154.636 		"/>
	</g>
	<g>
		<polygon style="fill:#FEFFFF;" points="407.483,313.171 410.679,319.013 416.521,322.208 410.679,325.403 407.483,331.245 
			404.288,325.403 398.446,322.208 404.288,319.013 		"/>
	</g>
	<g>
		<path style="fill:#FEFFFF;" d="M303.506,177.025c0,1.856-1.505,3.361-3.361,3.361c-1.856,0-3.361-1.505-3.361-3.361
			s1.505-3.361,3.361-3.361C302.001,173.664,303.506,175.169,303.506,177.025z"/>
	</g>
	<g>
		<circle style="fill:#FEFFFF;" cx="401.807" cy="347.413" r="3.361"/>
	</g>
	<g>
		<path style="fill:#FEFFFF;" d="M418.947,299.019c0,2.599-2.106,4.705-4.705,4.705c-2.599,0-4.705-2.107-4.705-4.705
			c0-2.598,2.106-4.705,4.705-4.705C416.84,294.314,418.947,296.42,418.947,299.019z"/>
	</g>
	<g>
		<path style="fill:#FEFFFF;" d="M267.378,136.701c0,1.114-0.903,2.016-2.016,2.016s-2.016-0.903-2.016-2.016
			s0.903-2.016,2.016-2.016S267.378,135.587,267.378,136.701z"/>
	</g>
	<g>
		<path style="fill:#FEFFFF;" d="M125.22,245.247c0,1.114-0.903,2.016-2.016,2.016c-1.114,0-2.016-0.903-2.016-2.016
			c0-1.114,0.903-2.017,2.016-2.017C124.317,243.231,125.22,244.134,125.22,245.247z"/>
	</g>
	<g>
		<path style="fill:#FEFFFF;" d="M417.603,239.198c0,1.114-0.903,2.016-2.017,2.016c-1.114,0-2.016-0.903-2.016-2.016
			c0-1.114,0.903-2.016,2.016-2.016C416.7,237.182,417.603,238.085,417.603,239.198z"/>
	</g>
	<g>
		<path style="fill:#FEFFFF;" d="M408.016,214.016c0,1.114-0.903,2.016-2.016,2.016s-2.016-0.903-2.016-2.016
			c0-1.114,0.903-2.016,2.016-2.016S408.016,212.903,408.016,214.016z"/>
	</g>
	<g>
		<path style="fill:#FEFFFF;" d="M243.016,166.984c0,1.114-0.903,2.016-2.016,2.016s-2.016-0.903-2.016-2.016
			s0.903-2.016,2.016-2.016S243.016,165.87,243.016,166.984z"/>
	</g>
	<g>
		<path style="fill:#FEFFFF;" d="M334.257,96.032c0,1.114-0.903,2.016-2.016,2.016c-1.114,0-2.017-0.903-2.017-2.016
			c0-1.114,0.903-2.016,2.017-2.016C333.354,94.015,334.257,94.918,334.257,96.032z"/>
	</g>
	<g>
		<path style="fill:#FEFFFF;" d="M408.193,160.557c0,1.114-0.903,2.016-2.017,2.016c-1.114,0-2.016-0.903-2.016-2.016
			c0-1.114,0.903-2.016,2.016-2.016C407.29,158.541,408.193,159.444,408.193,160.557z"/>
	</g>
	<g>
		<path style="fill:#FEFFFF;" d="M336.609,379.34c0,2.042-1.655,3.697-3.697,3.697c-2.042,0-3.697-1.655-3.697-3.697
			c0-2.042,1.655-3.697,3.697-3.697C334.954,375.643,336.609,377.298,336.609,379.34z"/>
	</g>
	<g>
		<path style="fill:#FEFFFF;" d="M319.134,377.66c0,0.928-0.752,1.68-1.68,1.68c-0.928,0-1.68-0.752-1.68-1.68
			c0-0.928,0.752-1.68,1.68-1.68C318.381,375.979,319.134,376.732,319.134,377.66z"/>
	</g>
	<g>
		<path style="fill:#FEFFFF;" d="M88.084,301.371c0,0.928-0.752,1.68-1.68,1.68c-0.928,0-1.68-0.752-1.68-1.68
			c0-0.928,0.752-1.68,1.68-1.68C87.332,299.691,88.084,300.443,88.084,301.371z"/>
	</g>
	<g>
		<path style="fill:#FEFFFF;" d="M361.815,380.012c0,1.485-1.204,2.689-2.689,2.689s-2.689-1.204-2.689-2.689
			c0-1.485,1.204-2.688,2.689-2.688S361.815,378.527,361.815,380.012z"/>
	</g>
	<g>
		<path style="fill:#FEFFFF;" d="M337.113,402.193c0,1.485-1.204,2.689-2.689,2.689c-1.485,0-2.689-1.204-2.689-2.689
			c0-1.485,1.204-2.689,2.689-2.689C335.91,399.504,337.113,400.708,337.113,402.193z"/>
	</g>
	<g>
		<path style="fill:#FEFFFF;" d="M106.4,342.876c0,1.485-1.204,2.689-2.689,2.689s-2.689-1.204-2.689-2.689
			c0-1.485,1.204-2.688,2.689-2.688S106.4,341.391,106.4,342.876z"/>
	</g>
	<g>
		<g>
			<rect x="107.591" y="124.598" style="fill:#6CA1EF;" width="8.531" height="88.219"/>
		</g>
		<g>
			<rect x="107.591" y="156.539" style="fill:#F77E2D;" width="8.531" height="56.278"/>
		</g>
		<g>
			<rect x="121.164" y="124.598" style="fill:#6CA1EF;" width="8.531" height="88.219"/>
		</g>
		<g>
			<rect x="121.164" y="178.847" style="fill:#F77E2D;" width="8.531" height="33.969"/>
		</g>
		<g>
			<rect x="133.96" y="124.598" style="fill:#6CA1EF;" width="8.531" height="88.219"/>
		</g>
		<g>
			<rect x="133.96" y="142.343" style="fill:#F77E2D;" width="8.531" height="70.474"/>
		</g>
		<g>
			<rect x="146.757" y="124.598" style="fill:#F77E2D;" width="8.531" height="88.219"/>
		</g>
		<g>
			<rect x="146.757" y="159.581" style="fill:#6CA1EF;" width="8.531" height="53.236"/>
		</g>
		<g>
			<rect x="108.367" y="219.201" style="fill:#6CA1EF;" width="6.205" height="6.007"/>
		</g>
		<g>
			<rect x="118.837" y="219.201" style="fill:#F77E2D;" width="6.204" height="6.007"/>
		</g>
		<g>
			<path style="fill:#FEFFFF;" d="M150.544,218.942c0,0.728-0.609,1.317-1.36,1.317c-0.751,0-1.36-0.59-1.36-1.317
				c0-0.727,0.609-1.317,1.36-1.317C149.934,217.625,150.544,218.214,150.544,218.942z"/>
		</g>
		<g>
			<path style="fill:#FEFFFF;" d="M93.015,170.208c0,1.247-1.044,2.258-2.332,2.258c-1.288,0-2.332-1.011-2.332-2.258
				c0-1.247,1.044-2.258,2.332-2.258C91.971,167.95,93.015,168.961,93.015,170.208z"/>
		</g>
	</g>
	<g>
		<path style="fill:#FEFFFF;" d="M153.114,103.425c0,1.299-1.053,2.353-2.353,2.353c-1.299,0-2.352-1.053-2.352-2.353
			c0-1.299,1.053-2.353,2.352-2.353C152.061,101.073,153.114,102.126,153.114,103.425z"/>
	</g>
	<g>
		<g>
			<path style="fill:#F77E2D;" d="M327.851,252.56c0,4.981-0.514,9.85-1.492,14.548c-0.897,4.355-2.198,8.56-3.851,12.583
				c-4.466,10.838-11.524,20.336-20.406,27.706v0.01c-4.618,3.831-9.729,7.088-15.224,9.659c-9.124,4.275-19.297,6.664-30.025,6.664
				c-35.933,0-65.635-26.758-70.343-61.471c-0.444-3.166-0.665-6.412-0.665-9.699c0-1.986,0.081-3.952,0.252-5.898
				c0.343-4.315,1.079-8.519,2.168-12.583c3.952-14.77,12.522-27.645,24.076-36.961c6.906-5.585,14.881-9.901,23.562-12.583
				c6.262-1.929,12.904-3.017,19.771-3.124v-0.001c0.007,0,0.013,0,0.02,0c0.125-0.002,0.248-0.009,0.373-0.011
				c0.262,0,0.524-0.01,0.786-0.01c1.411,0,2.823,0.04,4.214,0.131c0.696,0.03,1.381,0.081,2.067,0.151
				c0.776,0.061,1.553,0.141,2.329,0.242c0.938,0.111,1.855,0.242,2.773,0.393c0.383,0.05,0.766,0.121,1.139,0.181
				c0.474,0.091,0.948,0.182,1.411,0.272c0.323,0.061,0.655,0.131,0.978,0.202c0.373,0.081,0.746,0.161,1.119,0.252
				c0.423,0.091,0.837,0.191,1.25,0.302c0.464,0.111,0.927,0.232,1.381,0.363c0.655,0.171,1.301,0.363,1.936,0.554
				c0.474,0.141,0.938,0.282,1.401,0.444c0.928,0.302,1.855,0.615,2.752,0.958c0.434,0.161,0.857,0.323,1.28,0.494
				c0.484,0.192,0.968,0.383,1.452,0.595c0.897,0.373,1.775,0.766,2.641,1.18c0.424,0.192,0.847,0.393,1.26,0.605
				c0.101,0.05,0.202,0.091,0.302,0.151c0.393,0.191,0.776,0.393,1.169,0.595c0.605,0.313,1.21,0.645,1.805,0.988
				c0.333,0.181,0.665,0.373,0.998,0.565c0.403,0.232,0.797,0.464,1.19,0.716c0.403,0.242,0.796,0.484,1.18,0.736
				c0.575,0.363,1.149,0.736,1.704,1.119c0.454,0.302,0.917,0.625,1.361,0.948c0.464,0.323,0.928,0.665,1.381,1.008
				c0.454,0.333,0.907,0.686,1.351,1.038c0.393,0.313,0.786,0.625,1.169,0.938c0.494,0.403,0.978,0.817,1.462,1.24
				c0.434,0.373,0.857,0.746,1.27,1.129c0.423,0.383,0.837,0.776,1.25,1.17c0.413,0.393,0.817,0.786,1.22,1.19
				c0.403,0.403,0.797,0.807,1.19,1.22c0.04,0.03,0.071,0.071,0.111,0.111c0.746,0.786,1.472,1.593,2.188,2.42
				c1.502,1.734,2.914,3.539,4.234,5.414c0.615,0.857,1.2,1.724,1.775,2.611c0.05,0.081,0.101,0.161,0.151,0.242
				c0.292,0.464,0.585,0.928,0.867,1.401c0.302,0.484,0.595,0.978,0.877,1.482c0.504,0.877,0.988,1.764,1.452,2.662
				c0.191,0.373,0.383,0.746,0.565,1.119c0.191,0.383,0.383,0.776,0.565,1.16c0.171,0.353,0.343,0.716,0.504,1.079
				c0.182,0.393,0.353,0.796,0.524,1.2c0.05,0.101,0.091,0.202,0.131,0.302c0.061,0.131,0.121,0.272,0.181,0.413
				c0.081,0.202,0.171,0.413,0.252,0.615c0.161,0.393,0.313,0.786,0.464,1.19c0.131,0.333,0.262,0.665,0.393,1.008
				c0.061,0.171,0.121,0.353,0.182,0.524c0.131,0.353,0.252,0.716,0.373,1.069c0.353,1.028,0.686,2.057,0.978,3.105
				c0.111,0.363,0.212,0.716,0.313,1.079c0.191,0.716,0.383,1.432,0.555,2.158c0.091,0.353,0.171,0.716,0.252,1.069
				c0.071,0.343,0.151,0.686,0.222,1.028c0.101,0.484,0.192,0.968,0.282,1.452c0.081,0.444,0.161,0.877,0.232,1.321
				c0.081,0.484,0.161,0.968,0.232,1.452c0.05,0.353,0.101,0.696,0.141,1.049c0.06,0.403,0.111,0.817,0.151,1.23
				c0.061,0.484,0.111,0.978,0.151,1.462c0.061,0.676,0.121,1.361,0.161,2.047c0.03,0.484,0.06,0.978,0.081,1.472v0.01
				C327.831,250.453,327.851,251.502,327.851,252.56z"/>
		</g>
		<g>
			<path style="fill:#DAE3F7;" d="M328.204,252.943c0,4.85-0.504,9.588-1.462,14.165c-0.897,4.345-2.208,8.56-3.902,12.583
				c-4.507,10.798-11.685,20.295-20.729,27.726l-0.01-0.01v-0.01c-2.208-2.652-4.416-5.303-6.594-7.965
				c-1.795-2.168-3.569-4.335-5.333-6.513c-11.514-14.186-22.766-28.563-33.785-43.101c-0.111-0.131-0.212-0.272-0.313-0.403
				c0-0.01-0.01-0.01-0.01-0.02c-0.131-0.171-0.262-0.343-0.393-0.514v-67.47c0.131,0,0.262,0.01,0.393,0.01
				c29.561,0.766,54.806,18.219,65.988,42.94c0.05,0.101,0.091,0.202,0.131,0.302c0.061,0.131,0.121,0.272,0.181,0.413
				c0.081,0.202,0.171,0.413,0.252,0.615c0.001,0.004,0.003,0.008,0.004,0.011C326.214,234.096,328.204,243.291,328.204,252.943z"/>
		</g>
		<g>
			<path style="fill:#F3F7FF;" d="M327.783,249.415c-1.643-37.844-32.769-68.021-70.931-68.021c-0.262,0-0.523,0.007-0.784,0.01
				v68.012H327.783z"/>
		</g>
		<g>
			<path style="fill:#1F44C6;" d="M262.737,236.654c-0.256,0-0.513-0.098-0.708-0.294l-41.583-41.678
				c-0.39-0.391-0.389-1.024,0.002-1.414c0.391-0.391,1.024-0.389,1.414,0.002l41.582,41.678c0.39,0.391,0.389,1.024-0.002,1.414
				C263.248,236.557,262.992,236.654,262.737,236.654z"/>
		</g>
		<g>
			<path style="fill:#6CA1EF;" d="M237.63,197.121h-43.936c-3.452,0-6.277-2.831-6.277-6.291l0,0c0-3.46,2.824-6.291,6.277-6.291
				h43.936c3.452,0,6.277,2.831,6.277,6.291l0,0C243.906,194.29,241.082,197.121,237.63,197.121z"/>
		</g>
		<g>
			<path style="fill:#1F44C6;" d="M209.385,286.195c-0.256,0-0.513-0.098-0.708-0.294l-41.582-41.678
				c-0.39-0.391-0.389-1.023,0.002-1.414c0.39-0.39,1.024-0.39,1.414,0.002l41.582,41.678c0.39,0.391,0.389,1.023-0.002,1.414
				C209.897,286.098,209.641,286.195,209.385,286.195z"/>
		</g>
		<g>
			<path style="fill:#1F44C6;" d="M294.119,301.923c-0.245,0-0.49-0.089-0.683-0.27c-0.403-0.377-0.424-1.01-0.047-1.413
				l23.537-25.164c0.378-0.403,1.011-0.425,1.413-0.048c0.403,0.377,0.424,1.01,0.047,1.413l-23.537,25.164
				C294.652,301.816,294.386,301.923,294.119,301.923z"/>
		</g>
		<g>
			<path style="fill:#6CA1EF;" d="M189.771,246.663h-43.936c-3.452,0-6.277-2.831-6.277-6.291l0,0c0-3.46,2.825-6.291,6.277-6.291
				h43.936c3.452,0,6.277,2.831,6.277,6.291l0,0C196.048,243.832,193.223,246.663,189.771,246.663z"/>
		</g>
		<g>
			<path style="fill:#6CA1EF;" d="M352.177,279.691h-43.936c-3.452,0-6.276-2.831-6.276-6.291l0,0c0-3.46,2.824-6.291,6.276-6.291
				h43.936c3.452,0,6.277,2.831,6.277,6.291l0,0C358.454,276.86,355.629,279.691,352.177,279.691z"/>
		</g>
		<g>
			<path style="fill:#FEFFFF;" d="M162.954,204.146c0,0.897-0.726,1.625-1.621,1.625c-0.896,0-1.621-0.728-1.621-1.625
				c0-0.898,0.726-1.625,1.621-1.625C162.228,202.521,162.954,203.249,162.954,204.146z"/>
		</g>
	</g>
	<g>
		<path style="fill:#FEFFFF;" d="M204.533,83.933c0,1.485-1.204,2.689-2.689,2.689c-1.485,0-2.689-1.204-2.689-2.689
			c0-1.485,1.204-2.688,2.689-2.688C203.329,81.244,204.533,82.448,204.533,83.933z"/>
	</g>
	<g>
		<rect x="376.602" y="276.166" style="fill:#F77E2D;" width="8.066" height="84.69"/>
	</g>
	<g>
		<rect x="361.142" y="294.934" style="fill:#6CA1EF;" width="7.585" height="65.923"/>
	</g>
	<g>
		<rect x="347.025" y="309.881" style="fill:#E3E9F9;" width="7.877" height="51.317"/>
	</g>
	<g>
		<g>
			<rect x="84.726" y="261.062" style="fill:#1F44C6;" width="82.509" height="2.418"/>
		</g>
		<g>
			<polygon style="fill:#F77E2D;" points="102.433,261.08 102.433,307.898 102.733,307.898 126.742,325.905 151.052,307.898 
				151.052,261.08 			"/>
		</g>
		<g>
			<path style="fill:#F29111;" d="M151.052,261.08h-48.619v46.818h0.3l3.103,2.328c14.084-14.089,28.527-27.958,45.215-39.587
				V261.08z"/>
		</g>
		<g>
			<path style="fill:#1F44C6;" d="M88.103,257.911c2.081,1.202,2.795,3.863,1.593,5.945c-1.202,2.081-3.863,2.794-5.944,1.593
				c-2.081-1.202-2.795-3.863-1.593-5.944C83.36,257.423,86.021,256.71,88.103,257.911z"/>
		</g>
		<g>
			<path style="fill:#1F44C6;" d="M171.534,258.512c2.082,1.202,2.795,3.863,1.593,5.944c-1.202,2.081-3.863,2.795-5.944,1.593
				c-2.081-1.202-2.794-3.863-1.593-5.944C166.792,258.023,169.453,257.31,171.534,258.512z"/>
		</g>
	</g>
	<g>
		<g>
			<polygon style="fill:#E3E9F9;" points="124.847,302.882 112.684,290.719 116.248,287.155 124.921,295.827 139.607,281.74 
				143.096,285.379 			"/>
		</g>
	</g>
	<g>
		<path style="fill:#F77E2D;" d="M123.981,367.846c0,5.412-1.096,7.976-5.303,7.976s-5.28-2.542-5.28-7.954
			c0-5.565,1.139-8.02,5.28-8.02C122.864,359.848,123.981,362.367,123.981,367.846z M116.531,367.846
			c0,4.645,0.504,5.478,2.147,5.478c1.644,0,2.169-0.833,2.169-5.478c0-4.646-0.526-5.5-2.169-5.5
			C117.035,362.346,116.531,363.179,116.531,367.846z"/>
		<path style="fill:#F77E2D;" d="M129.923,372.775v-9.071l-2.629,0.854v-2.345l3.199-2.366h2.476v12.928h2.629v2.695h-8.304v-2.695
			H129.923z"/>
		<path style="fill:#E3E9F9;" d="M148.354,367.846c0,5.412-1.096,7.976-5.303,7.976c-4.207,0-5.28-2.542-5.28-7.954
			c0-5.565,1.139-8.02,5.28-8.02C147.237,359.848,148.354,362.367,148.354,367.846z M140.904,367.846
			c0,4.645,0.504,5.478,2.147,5.478c1.644,0,2.169-0.833,2.169-5.478c0-4.646-0.526-5.5-2.169-5.5
			C141.408,362.346,140.904,363.179,140.904,367.846z"/>
	</g>
	<g>
		<path style="fill:#6CA1EF;" d="M130.843,396.133v-9.071l-2.629,0.854v-2.345l3.199-2.366h2.476v12.928h2.629v2.695h-8.304v-2.695
			H130.843z"/>
		<path style="fill:#6CA1EF;" d="M149.274,391.203c0,5.412-1.096,7.976-5.303,7.976c-4.207,0-5.28-2.542-5.28-7.954
			c0-5.565,1.139-8.02,5.28-8.02C148.157,383.205,149.274,385.725,149.274,391.203z M141.824,391.203
			c0,4.645,0.504,5.478,2.147,5.478c1.643,0,2.169-0.833,2.169-5.478c0-4.646-0.526-5.5-2.169-5.5
			C142.328,385.703,141.824,386.536,141.824,391.203z"/>
		<path style="fill:#E3E9F9;" d="M155.216,396.133v-9.071l-2.629,0.854v-2.345l3.199-2.366h2.476v12.928h2.629v2.695h-8.304v-2.695
			H155.216z"/>
		<path style="fill:#E3E9F9;" d="M173.647,391.203c0,5.412-1.096,7.976-5.303,7.976s-5.28-2.542-5.28-7.954
			c0-5.565,1.139-8.02,5.28-8.02C172.53,383.205,173.647,385.725,173.647,391.203z M166.197,391.203
			c0,4.645,0.504,5.478,2.147,5.478c1.644,0,2.169-0.833,2.169-5.478c0-4.646-0.526-5.5-2.169-5.5
			C166.701,385.703,166.197,386.536,166.197,391.203z"/>
	</g>
	<g>
		<rect x="170.59" y="104.433" style="fill:#E3E9F9;" width="65.03" height="39.825"/>
	</g>
	<g>
		<path style="fill:#6CA1EF;" d="M238.12,146.758h-70.03v-44.825h70.03V146.758z M173.09,141.758h60.03v-34.825h-60.03V141.758z"/>
	</g>
	<g>
		<rect x="188.738" y="153.332" style="fill:#6CA1EF;" width="29.238" height="6.049"/>
	</g>
	<g>
		<path style="fill:#F77E2D;" d="M218.102,126.177c0-4.949,3.856-8.612,8.612-8.612c1.961,0,3.769,0.625,5.216,1.703
			c2.214-3.473,6.098-5.761,10.522-5.761c6.888,0,12.472,5.543,12.472,12.472L218.102,126.177z"/>
	</g>
	<g>
		<path style="fill:#F77E2D;" d="M384.122,201.457c0-4.949,3.856-8.612,8.612-8.612c1.961,0,3.769,0.624,5.216,1.703
			c2.214-3.473,6.098-5.762,10.522-5.762c6.888,0,12.472,5.543,12.472,12.472L384.122,201.457z"/>
	</g>
	<g>
		<path style="fill:#F77E2D;" d="M163.659,177.092c0-4.949,3.856-8.612,8.612-8.612c1.961,0,3.769,0.625,5.216,1.703
			c2.214-3.472,6.098-5.761,10.522-5.761c6.888,0,12.472,5.543,12.472,12.472L163.659,177.092z"/>
	</g>
	<g>
		<path style="fill:#F77E2D;" d="M129.884,348.488c0-4.949,3.856-8.612,8.612-8.612c1.961,0,3.769,0.625,5.216,1.703
			c2.214-3.473,6.098-5.762,10.522-5.762c6.888,0,12.472,5.543,12.472,12.472L129.884,348.488z"/>
	</g>
	<g>
		<path style="fill:#F77E2D;" d="M187.201,139.284c0-3.571-2.782-6.213-6.213-6.213c-1.415,0-2.719,0.451-3.764,1.229
			c-1.598-2.505-4.4-4.157-7.592-4.157c-4.97,0-8.998,3.999-8.998,8.998L187.201,139.284z"/>
	</g>
	<g>
		<path style="fill:#F77E2D;" d="M105.622,242.166c0-3.571-2.782-6.213-6.213-6.213c-1.415,0-2.719,0.451-3.764,1.229
			c-1.597-2.506-4.4-4.157-7.592-4.157c-4.97,0-8.998,3.999-8.998,8.998L105.622,242.166z"/>
	</g>
	<g>
		<path style="fill:#F77E2D;" d="M186.697,299.086c0-3.571-2.782-6.213-6.213-6.213c-1.415,0-2.719,0.451-3.764,1.229
			c-1.598-2.505-4.4-4.157-7.592-4.157c-4.97,0-8.998,3.999-8.998,8.998L186.697,299.086z"/>
	</g>
	<g>
		<path style="fill:#E3E9F9;" d="M363.326,263.649c0,0,19.068,0,19.13,0c0,0,0.03-5.996,0-5.982
			c-0.427,0.206,3.982-3.014,4.937-5.724c0.005-0.013,0.009-0.027,0.014-0.04c1.059-3.04,1.034-6.592,1.063-9.762
			c0.043-4.785,0.092-9.584,0.079-14.369v-8.828c0-1.007-0.977-1.831-2.17-1.831c-1.194,0-2.17,0.824-2.17,1.831v8.828h-1.852
			v-13.614c0-1.009-0.979-1.834-2.174-1.834s-2.174,0.825-2.174,1.834v13.614h-2.078v-17.283c0-1.076-1.044-1.957-2.32-1.957
			c-1.276,0-2.32,0.881-2.32,1.957v17.283h-2.884v-22.874c0-1.149-1.115-2.089-2.477-2.089h-0.089c-1.362,0-2.477,0.94-2.477,2.089
			v22.874h-0.037v12.116c-1.218-0.228-2.073-1.02-2.63-1.794v-7.714c0-0.886-0.851-1.611-1.897-1.628l0.016-0.015
			c3.983,0.76,5.244-8.089,2.655-9.466c-1.333,1.137-2,3.668-3.518,5.158c-1.872,1.838-2.53,3.29-2.75,5.311
			c-0.1,0.197-0.157,0.413-0.157,0.64v9.254l-0.054,0.037c0.013,0.272,0.033,0.535,0.054,0.797v0.2c0,0.128,0.022,0.251,0.055,0.371
			c0.968,8.901,7.012,11.475,8.226,11.903v3.585"/>
	</g>
	<g>
		<path style="fill:#6CA1EF;" d="M303.259,108.874c-0.286-5.604-2.973-10.8-7.357-14.246c-0.51-0.419-1.067-0.817-1.647-1.177
			c-1.559-0.997-3.237-1.758-4.981-2.256c-1.447-0.425-2.955-0.661-4.471-0.737c-0.104-0.046-0.218-0.073-0.338-0.073
			c-0.108,0-0.209,0.024-0.304,0.062c-1.025-0.018-2.05,0.018-3.058,0.164l-0.067,0.008c-2.072,0.287-4.085,0.924-5.969,1.888
			c-0.591,0.289-1.186,0.625-1.768,0.998c-5.271,3.388-8.603,9.135-8.914,15.38c-0.014,0.333-0.027,0.665-0.027,0.997
			c0,0.333,0.013,0.665,0.027,1.004c0.234,4.729,2.194,9.201,5.515,12.592c0.502,0.517,0.98,0.96,1.452,1.345
			c2.42,2.022,5.299,3.433,8.326,4.082l0.086,0.015c0.706,0.154,1.434,0.259,2.174,0.329c0.816,0.292,1.66,0.456,2.529,0.456
			c1.13,0,2.22-0.276,3.257-0.763c0.976-0.198,1.939-0.457,2.878-0.804l0.186-0.076l0.001-0.001
			c2.016-0.762,3.891-1.875,5.564-3.296c0.552-0.451,1.049-0.915,1.459-1.364c3.282-3.378,5.218-7.822,5.452-12.523
			c0.014-0.332,0.027-0.664,0.027-0.997C303.286,109.549,303.273,109.216,303.259,108.874z M301.579,108.951
			c0.002,0.042,0.002,0.084,0.003,0.127h-5.315c-0.17-4.39-1.23-8.381-2.895-11.501c0.001-0.001,0.002-0.002,0.003-0.003
			c0.534-0.503,1.013-1.06,1.454-1.649c0.006,0.005,0.013,0.009,0.019,0.014C298.865,99.095,301.317,103.841,301.579,108.951z
			 M276.764,121.333C276.764,121.333,276.764,121.333,276.764,121.333c2.055-0.764,4.383-1.191,6.859-1.205v7.529
			c-0.135-0.001-0.268-0.012-0.403-0.016C280.625,127.066,278.338,124.735,276.764,121.333z M292.369,95.906
			c-0.001,0.001-0.002,0.002-0.004,0.003c-0.703-1.035-1.474-1.947-2.313-2.686c1.117,0.416,2.196,0.953,3.226,1.605
			C292.998,95.206,292.702,95.573,292.369,95.906z M285.305,92.905c2.15,0.32,4.104,1.849,5.647,4.201
			c-1.613,1.156-3.548,1.865-5.647,1.975V92.905z M283.622,92.905v6.135c-2.049-0.212-3.925-0.994-5.47-2.204
			c-0.002-0.001-0.004-0.003-0.005-0.005C279.662,94.629,281.554,93.212,283.622,92.905z M277.165,98.496
			c1.833,1.368,4.05,2.255,6.457,2.467v8.115h-9.055C274.731,105.008,275.685,101.327,277.165,98.496z M283.622,110.989v7.228
			c-2.716,0.014-5.284,0.491-7.567,1.356c-0.895-2.509-1.435-5.439-1.504-8.584H283.622z M285.305,127.587v-7.384
			c2.412,0.177,4.671,0.733,6.612,1.624c-1.439,2.882-3.402,4.926-5.63,5.658C285.96,127.53,285.633,127.56,285.305,127.587z
			 M293.572,122.687c0.506,0.311,0.972,0.649,1.421,1.002c-1.11,0.906-2.3,1.673-3.564,2.271
			C292.221,125.011,292.946,123.921,293.572,122.687z M292.689,120.097C292.688,120.097,292.688,120.097,292.689,120.097
			c-2.18-1.004-4.7-1.622-7.384-1.804v-7.305h9.07C294.302,114.352,293.697,117.479,292.689,120.097z M285.305,109.078v-8.086
			c2.441-0.109,4.706-0.906,6.596-2.227c1.401,2.793,2.301,6.371,2.458,10.312H285.305z M279.69,92.578
			c-1.056,0.765-2.03,1.775-2.898,2.987c-0.001-0.001-0.002-0.002-0.003-0.003c-0.418-0.456-0.777-0.957-1.104-1.478
			c0.044-0.022,0.087-0.052,0.132-0.074C277.073,93.368,278.384,92.891,279.69,92.578z M274.035,95.043
			c0.486,0.785,1.038,1.526,1.697,2.175c0.005,0.005,0.01,0.009,0.014,0.014c-1.774,3.168-2.91,7.291-3.086,11.846h-6.6
			c0.001-0.039,0.001-0.08,0.003-0.118C266.344,103.334,269.324,98.153,274.035,95.043z M266.08,110.989h6.563
			c0.072,3.406,0.681,6.585,1.696,9.329c-0.007,0.003-0.014,0.006-0.021,0.009c-1.171,0.57-2.231,1.251-3.171,2.02
			c-0.015-0.016-0.029-0.028-0.045-0.044C268.108,119.246,266.334,115.231,266.08,110.989z M272.578,123.641
			c0.754-0.579,1.569-1.122,2.479-1.582c0.002-0.001,0.004-0.001,0.005-0.002c0.867,1.856,1.93,3.444,3.143,4.688
			C276.179,126.068,274.265,125.018,272.578,123.641z M296.584,122.247c-0.054,0.059-0.12,0.118-0.177,0.178
			c-0.634-0.525-1.314-1.022-2.06-1.459c1.163-2.883,1.859-6.302,1.937-9.977h5.276
			C301.306,115.203,299.553,119.189,296.584,122.247z"/>
	</g>
	<g>
		<g>
			<g>
				<path style="fill:#E3E9F9;" d="M336.825,169.041c-0.206-0.199-0.134-0.61,0.175-0.882c4.911-4.412,12.404-4.327,17.214,0.189
					c0.304,0.284,0.367,0.693,0.158,0.888c-0.344,0.324-0.683,0.648-1.024,0.971c-0.21,0.195-0.566,0.155-0.809-0.072
					c-3.884-3.649-9.938-3.717-13.904-0.159c-0.245,0.222-0.605,0.256-0.809,0.056C337.493,169.705,337.158,169.373,336.825,169.041
					z"/>
			</g>
			<g>
				<path style="fill:#E3E9F9;" d="M333.433,165.275c-0.207-0.201-0.044-0.699,0.379-1.081c6.753-6.065,17.063-5.952,23.677,0.266
					c0.416,0.389,0.566,0.89,0.359,1.085c-0.343,0.326-0.683,0.648-1.023,0.971c-0.213,0.197-0.656,0.06-1.01-0.272
					c-5.69-5.346-14.559-5.443-20.368-0.225c-0.362,0.322-0.809,0.445-1.015,0.246C334.099,165.934,333.765,165.602,333.433,165.275
					z"/>
			</g>
			<g>
				<path style="fill:#E3E9F9;" d="M329.195,161.496c-0.207-0.199,0.066-0.813,0.636-1.321c9.048-8.127,22.864-7.974,31.728,0.354
					c0.558,0.525,0.818,1.142,0.608,1.337c-0.342,0.326-0.681,0.646-1.022,0.969c-0.21,0.197-0.762-0.056-1.258-0.52
					c-7.942-7.458-20.317-7.595-28.422-0.318c-0.505,0.455-1.062,0.693-1.267,0.495
					C329.861,162.159,329.527,161.828,329.195,161.496z"/>
			</g>
		</g>
	</g>
	<g>
		<g>
			<rect x="334.917" y="204.919" style="fill:#F77E2D;" width="7.062" height="18.158"/>
		</g>
		<g>
			<polygon style="fill:#F77E2D;" points="347.008,219.302 338.448,227.861 329.888,219.302 			"/>
		</g>
	</g>
	<g>
		<g>
			
				<rect x="399.779" y="261.458" transform="matrix(-1 -1.224647e-16 1.224647e-16 -1 806.619 541.0747)" style="fill:#6CA1EF;" width="7.062" height="18.158"/>
		</g>
		<g>
			<polygon style="fill:#6CA1EF;" points="394.75,265.234 403.31,256.674 411.87,265.234 			"/>
		</g>
	</g>
	<g>
		<path style="fill:#6CA1EF;" d="M302.101,307.397v0.01c-4.618,3.831-9.729,7.088-15.224,9.659l-30.811-67.651l0.323,0.403
			l39.26,49.463L302.101,307.397z"/>
	</g>
	<g>
		<path style="fill:#1F44C6;" d="M294.119,301.923c-0.245,0-0.49-0.089-0.683-0.27c-0.403-0.377-0.424-1.01-0.047-1.413
			l23.537-25.164c0.378-0.403,1.011-0.425,1.413-0.048c0.403,0.377,0.424,1.01,0.047,1.413l-23.537,25.164
			C294.652,301.816,294.386,301.923,294.119,301.923z"/>
	</g>
	<g>
		<path style="fill:#6CA1EF;" d="M352.177,279.691h-43.936c-3.452,0-6.276-2.831-6.276-6.291l0,0c0-3.46,2.824-6.291,6.276-6.291
			h43.936c3.452,0,6.277,2.831,6.277,6.291l0,0C358.454,276.86,355.629,279.691,352.177,279.691z"/>
	</g>
</g>
<g id="DESIGNED_BY_FREEPIK">
	<g>
		<g id="XMLID_1_">
			<g id="XMLID_20_">
				<path id="XMLID_28_" style="fill:#F6F9FA;" d="M260.104,459.284c-0.432,0.443-0.803,0.931-1.108,1.453l-0.465-0.241
					c-0.067-0.298-0.349-0.503-0.659-0.466c-0.331,0.039-0.568,0.339-0.529,0.67c0.039,0.331,0.339,0.568,0.67,0.529
					c0.065-0.008,0.127-0.026,0.184-0.052l0.451,0.234c-0.251,0.554-0.433,1.139-0.539,1.744l0.747,0.132
					c0.23-1.306,0.85-2.507,1.792-3.473L260.104,459.284z"/>
				<path id="XMLID_27_" style="fill:#F6F9FA;" d="M265.592,456.982c-0.171,0-0.341,0.006-0.51,0.017l-0.074-0.626
					c0.188-0.149,0.296-0.389,0.266-0.645c-0.046-0.393-0.402-0.674-0.795-0.628c-0.393,0.046-0.674,0.402-0.628,0.795
					c0.03,0.254,0.189,0.461,0.405,0.564l0.073,0.624c-0.714,0.116-1.403,0.332-2.06,0.646l0.327,0.684
					c0.934-0.447,1.942-0.673,2.995-0.673c0.496,0,0.993,0.053,1.475,0.158l0.161-0.741
					C266.693,457.04,266.142,456.982,265.592,456.982z"/>
				<path id="XMLID_26_" style="fill:#F6F9FA;" d="M272.194,459.529c0.331-0.04,0.566-0.341,0.525-0.672
					c-0.04-0.331-0.341-0.566-0.672-0.526c-0.309,0.038-0.535,0.304-0.53,0.609l-0.416,0.363c-0.418-0.43-0.89-0.813-1.408-1.139
					l-0.404,0.641c1.134,0.715,2.021,1.726,2.563,2.925l0.691-0.313c-0.251-0.554-0.568-1.072-0.942-1.545l0.402-0.351
					C272.065,459.534,272.129,459.537,272.194,459.529z"/>
				<path id="XMLID_25_" style="fill:#F6F9FA;" d="M265.044,467.19c-0.386,0.023-0.775,0.035-1.157,0.035
					c-0.88,0-1.733-0.061-2.478-0.179c-0.39-0.062-0.846-0.155-1.27-0.292c1.046,1.861,3.069,3.125,5.388,3.125
					c2.855,0,5.262-1.916,5.95-4.504c-0.682,0.449-1.506,0.825-2.459,1.123C267.839,466.865,266.464,467.105,265.044,467.19z"/>
				<path id="XMLID_21_" style="fill:#F6F9FA;" d="M265.592,458.498c-3.352,0-6.08,2.666-6.08,5.944
					c0,0.426,0.046,0.849,0.137,1.261c0.674,0.483,2.706,0.89,5.348,0.731c2.879-0.173,5.297-0.957,6.672-2.159
					c-0.005-0.195-0.021-0.39-0.045-0.582C271.244,460.731,268.651,458.498,265.592,458.498z M263.432,465.013
					c-1.02,0-1.85-0.83-1.85-1.85c0-1.02,0.83-1.85,1.85-1.85c1.02,0,1.85,0.83,1.85,1.85
					C265.282,464.183,264.452,465.013,263.432,465.013z M268.17,464.104c-0.75,0-1.36-0.61-1.36-1.36c0-0.75,0.61-1.36,1.36-1.36
					c0.75,0,1.361,0.61,1.361,1.36C269.53,463.494,268.92,464.104,268.17,464.104z"/>
			</g>
			<path id="XMLID_18_" style="fill:#F6F9FA;" d="M281.595,460.365c-0.295-0.116-0.806-0.309-1.382-0.237
				c-0.551,0.069-0.844,0.34-0.844,1.007V462h2.228v1.717h-2.228v5.455h-1.932v-5.455h-1.34V462h1.34v-0.888
				c0-1.68,0.896-2.783,2.568-2.783c0.642,0,1.157,0.122,1.59,0.308L281.595,460.365z"/>
			<path id="XMLID_16_" style="fill:#F6F9FA;" d="M286.298,463.697c-0.177-0.03-0.358-0.046-0.526-0.046
				c-0.896,0-1.51,0.548-1.51,1.613v3.908h-1.932V462h1.873v0.785c0.451-0.673,1.14-0.977,2.021-0.977
				c0.414,0,0.848,0.128,1.094,0.337L286.298,463.697z"/>
			<path id="XMLID_13_" style="fill:#F6F9FA;" d="M293.965,465.575c0,0.222-0.015,0.489-0.037,0.651h-5.085
				c0.207,1.036,0.933,1.488,1.843,1.488c0.622,0,1.295-0.252,1.813-0.688l1.132,1.243c-0.814,0.748-1.85,1.088-3.057,1.088
				c-2.198,0-3.723-1.495-3.723-3.752c0-2.258,1.48-3.797,3.626-3.797C292.544,461.808,293.958,463.34,293.965,465.575z
				 M288.851,464.909h3.175c-0.177-0.918-0.733-1.436-1.562-1.436C289.554,463.473,289.021,464.021,288.851,464.909z"/>
			<path id="XMLID_10_" style="fill:#F6F9FA;" d="M301.618,465.575c0,0.222-0.015,0.489-0.037,0.651h-5.085
				c0.207,1.036,0.932,1.488,1.843,1.488c0.622,0,1.295-0.252,1.813-0.688l1.132,1.243c-0.814,0.748-1.85,1.088-3.057,1.088
				c-2.198,0-3.723-1.495-3.723-3.752c0-2.258,1.48-3.797,3.627-3.797C300.197,461.808,301.611,463.34,301.618,465.575z
				 M296.504,464.909h3.175c-0.178-0.918-0.733-1.436-1.562-1.436C297.207,463.473,296.674,464.021,296.504,464.909z"/>
			<path id="XMLID_7_" style="fill:#F6F9FA;" d="M309.964,465.582c0,2.154-1.495,3.775-3.471,3.775
				c-0.962,0-1.643-0.377-2.109-0.933v3.708h-1.924V462h1.887v0.792c0.466-0.585,1.155-0.984,2.139-0.984
				C308.469,461.808,309.964,463.428,309.964,465.582z M304.287,465.582c0,1.132,0.747,1.976,1.843,1.976
				c1.14,0,1.85-0.881,1.85-1.976c0-1.095-0.71-1.976-1.85-1.976C305.035,463.606,304.287,464.45,304.287,465.582z"/>
			<path id="XMLID_4_" style="fill:#F6F9FA;" d="M313.068,459.654c0,0.696-0.54,1.229-1.236,1.229c-0.696,0-1.229-0.533-1.229-1.229
				c0-0.696,0.533-1.243,1.229-1.243C312.527,458.41,313.068,458.958,313.068,459.654z M312.809,469.172h-1.932V462h1.932V469.172z"
				/>
			<path id="XMLID_2_" style="fill:#F6F9FA;" d="M316.032,464.554l2.702-2.554h2.368l-3.479,3.375l3.501,3.797h-2.376l-2.716-2.901
				v2.901H314.1v-10.658h1.932V464.554z"/>
		</g>
		<g>
			<path style="fill:#F6F9FA;" d="M184.412,469.107v-1.055c-0.527,0.718-1.391,1.23-2.387,1.23c-1.846,0-3.149-1.406-3.149-3.706
				c0-2.256,1.289-3.721,3.149-3.721c0.952,0,1.816,0.469,2.387,1.245v-3.765h1.099v9.77H184.412z M184.412,467.188v-3.208
				c-0.395-0.615-1.245-1.143-2.124-1.143c-1.421,0-2.27,1.172-2.27,2.739c0,1.567,0.85,2.724,2.27,2.724
				C183.168,468.301,184.017,467.804,184.412,467.188z"/>
			<path style="fill:#F6F9FA;" d="M186.932,465.562c0-2.051,1.465-3.706,3.486-3.706c2.139,0,3.398,1.67,3.398,3.794v0.279h-5.727
				c0.088,1.333,1.025,2.446,2.549,2.446c0.806,0,1.626-0.322,2.182-0.893l0.527,0.718c-0.703,0.703-1.655,1.084-2.812,1.084
				C188.441,469.283,186.932,467.774,186.932,465.562z M190.404,462.765c-1.509,0-2.256,1.274-2.314,2.358h4.643
				C192.718,464.068,192.015,462.765,190.404,462.765z"/>
			<path style="fill:#F6F9FA;" d="M194.607,468.169l0.571-0.791c0.469,0.542,1.362,1.011,2.329,1.011c1.084,0,1.67-0.513,1.67-1.216
				c0-1.714-4.38-0.659-4.38-3.281c0-1.098,0.952-2.036,2.636-2.036c1.201,0,2.051,0.454,2.622,1.025l-0.513,0.762
				c-0.424-0.513-1.201-0.894-2.109-0.894c-0.967,0-1.567,0.483-1.567,1.113c0,1.553,4.38,0.527,4.38,3.281
				c0,1.187-0.952,2.139-2.783,2.139C196.306,469.283,195.325,468.931,194.607,468.169z"/>
			<path style="fill:#F6F9FA;" d="M201.477,460.289c0-0.41,0.337-0.747,0.732-0.747c0.41,0,0.747,0.337,0.747,0.747
				c0,0.41-0.337,0.732-0.747,0.732C201.814,461.021,201.477,460.699,201.477,460.289z M201.667,469.107v-7.075h1.099v7.075H201.667
				z"/>
			<path style="fill:#F6F9FA;" d="M204.582,470.923l0.556-0.82c0.586,0.703,1.289,0.967,2.3,0.967c1.172,0,2.27-0.571,2.27-2.124
				v-1.011c-0.513,0.718-1.377,1.26-2.373,1.26c-1.845,0-3.149-1.377-3.149-3.662c0-2.27,1.289-3.676,3.149-3.676
				c0.952,0,1.802,0.469,2.373,1.245v-1.069h1.099v6.87c0,2.344-1.641,3.076-3.369,3.076
				C206.237,471.978,205.417,471.744,204.582,470.923z M209.709,467.071v-3.091c-0.381-0.615-1.23-1.143-2.109-1.143
				c-1.421,0-2.27,1.128-2.27,2.695c0,1.553,0.849,2.695,2.27,2.695C208.478,468.228,209.328,467.686,209.709,467.071z"/>
			<path style="fill:#F6F9FA;" d="M217.413,469.107v-4.629c0-1.245-0.63-1.641-1.582-1.641c-0.865,0-1.685,0.527-2.095,1.099v5.17
				h-1.099v-7.075h1.099v1.025c0.498-0.586,1.464-1.201,2.519-1.201c1.48,0,2.256,0.747,2.256,2.285v4.966H217.413z"/>
			<path style="fill:#F6F9FA;" d="M219.932,465.562c0-2.051,1.465-3.706,3.486-3.706c2.139,0,3.398,1.67,3.398,3.794v0.279h-5.727
				c0.088,1.333,1.025,2.446,2.549,2.446c0.806,0,1.626-0.322,2.183-0.893l0.527,0.718c-0.703,0.703-1.655,1.084-2.812,1.084
				C221.441,469.283,219.932,467.774,219.932,465.562z M223.404,462.765c-1.509,0-2.256,1.274-2.314,2.358h4.643
				C225.718,464.068,225.015,462.765,223.404,462.765z"/>
			<path style="fill:#F6F9FA;" d="M233.35,469.107v-1.055c-0.527,0.718-1.392,1.23-2.388,1.23c-1.846,0-3.149-1.406-3.149-3.706
				c0-2.256,1.289-3.721,3.149-3.721c0.952,0,1.817,0.469,2.388,1.245v-3.765h1.098v9.77H233.35z M233.35,467.188v-3.208
				c-0.396-0.615-1.245-1.143-2.124-1.143c-1.421,0-2.27,1.172-2.27,2.739c0,1.567,0.849,2.724,2.27,2.724
				C232.105,468.301,232.954,467.804,233.35,467.188z"/>
			<path style="fill:#F6F9FA;" d="M239.692,469.107v-9.77h1.098v3.765c0.572-0.776,1.421-1.245,2.388-1.245
				c1.845,0,3.149,1.465,3.149,3.721c0,2.299-1.304,3.706-3.149,3.706c-0.996,0-1.86-0.513-2.388-1.23v1.055H239.692z
				 M242.9,468.301c1.436,0,2.286-1.157,2.286-2.724c0-1.567-0.85-2.739-2.286-2.739c-0.864,0-1.728,0.527-2.109,1.143v3.208
				C241.171,467.804,242.036,468.301,242.9,468.301z"/>
			<path style="fill:#F6F9FA;" d="M247.529,470.879c0.161,0.073,0.425,0.117,0.601,0.117c0.483,0,0.805-0.161,1.055-0.747
				l0.469-1.069l-2.959-7.148h1.187l2.358,5.801l2.344-5.801h1.201l-3.545,8.51c-0.425,1.025-1.143,1.421-2.08,1.435
				c-0.234,0-0.601-0.044-0.805-0.103L247.529,470.879z"/>
		</g>
	</g>
</g>
</svg>
